# xmcd
#
# Track frame offsets:
#	150
#	15849
#	32543
#	49943
#	66443
#	82266
#	96650
#	113684
#	127274
#	143977
#	158062
#	173788
#	189001
#	200504
#
# Disc length: 2834
#
# Revision: 3
# Processed by: cddbd v1.5.1PL0 Copyright (c) Steve Scherf et al.
# Submitted via: audiograbber 1.80.04
# Normalized: r2:DSETVAR1
#
DISCID=c10b100e
DTITLE=Various Artist - Hot Hits Country Vol. 78
DYEAR=1998
DGENRE=Country
TTITLE0=George Strait - I Just Want To Dance With You
TTITLE1=Collin Raye - I Can Still Feel You
TTITLE2=Trisha Yearwood - There Goes My Baby
TTITLE3=Terri Clark - Now That I Found You
TTITLE4=Daryle Singletary - That's Where You're Wrong
TTITLE5=Dixie Chicks - There's Your Trouble
TTITLE6=Bryan White - Bad Day To Let You Go
TTITLE7=Lee Ann Womack - Buckaroo
TTITLE8=Sawyer Brown - Small Talk
TTITLE9=Rhett Akins - Drivin My Life Away
TTITLE10=Suzy Bogguss - Somebody To Love
TTITLE11=Jeff Foxworthy - Totally Committed
TTITLE12=Wade Hayes - When The Wrong One Loves You Right
TTITLE13=Tammy Wynette - Stand By Your Man
EXTD=
EXTT0=
EXTT1=
EXTT2=
EXTT3=
EXTT4=
EXTT5=
EXTT6=
EXTT7=
EXTT8=
EXTT9=
EXTT10=
EXTT11=
EXTT12=
EXTT13=
PLAYORDER=
